<svg xmlns="http://www.w3.org/2000/svg" width="677" height="145" viewBox="0 0 677 145" fill="none">
  <path d="M397.81 50.2071C397.81 50.2071 403.46 51.1793 406.301 52.0033C406.77 52.1394 407.278 51.9255 407.493 51.4979C409.093 47.9966 411.415 42.3338 413.124 38.1654C413.36 37.5887 413.124 38.1654 413.795 36.5301C413.931 36.2579 413.931 35.9469 413.814 35.6748C413.697 35.4026 413.462 35.1888 413.169 35.0916C405.587 32.6812 394.545 31.2816 388.391 31.2816C386.25 31.2816 381.057 31.3399 378.773 31.5172C375.449 31.7388 372.407 32.1626 369.811 32.965C359.961 35.5904 351.562 42.0989 351.562 57.7379C351.562 74.8143 362.378 79.384 378.481 80.5866C392.902 81.7892 393.666 84.6753 393.666 88.764C393.666 95.2578 390.739 97.1819 379.923 97.1819C379.65 97.1819 379.372 97.1796 379.09 97.1749C371.968 96.9434 365.833 95.679 365.833 95.679C365.833 95.679 359.688 94.5306 357.342 93.6861C356.873 93.55 356.364 93.7638 356.15 94.1915C354.55 97.693 352.228 103.356 350.519 107.525L350.511 107.544C350.278 108.114 350.055 108.655 349.848 109.159C349.712 109.431 349.712 109.742 349.829 110.015C349.946 110.287 350.181 110.501 350.474 110.598C358.056 113.008 367.073 114.204 375.252 114.408C375.765 114.408 380.047 114.496 380.644 114.499C379.415 114.499 382.153 114.507 380.644 114.499C395.065 114.499 414.533 111.853 414.533 87.802C414.533 72.6497 406.842 65.9154 386.893 63.7508C374.395 62.5482 372.386 60.3978 372.386 56.5354C372.386 49.9272 375.442 48.2005 384.197 48.5998C390.286 48.9993 397.81 50.2071 397.81 50.2071Z" fill="#EE2F53"/>
  <path d="M433.439 5.5087C433.439 4.96542 433.88 4.525 434.424 4.525H453.329C453.873 4.525 454.314 4.96542 454.314 5.5087V111.355C454.314 111.898 453.873 112.338 453.329 112.338H434.424C433.88 112.338 433.439 111.898 433.439 111.355V5.5087Z" fill="#EE2F53"/>
  <path d="M654.197 34.4294C654.197 33.8862 654.638 33.4457 655.182 33.4457H674.087C674.63 33.4457 675.071 33.8862 675.071 34.4294V111.355C675.071 111.898 674.63 112.338 674.087 112.338H655.182C654.638 112.338 654.197 111.898 654.197 111.355V34.4294Z" fill="#EE2F53"/>
  <path d="M652.818 9.44351C652.818 4.228 657.05 0 662.271 0H666.997C672.218 0 676.45 4.228 676.45 9.44351V14.1653C676.45 19.3808 672.218 23.6088 666.997 23.6088H662.271C657.05 23.6088 652.818 19.3808 652.818 14.1653V9.44351Z" fill="#EE2F53"/>
  <path d="M541.573 33.4457H522.679C522.128 33.4457 521.695 33.8776 521.695 34.4273V93.8703C517.601 95.0089 513.508 95.5585 508.902 95.5585C497.447 95.5585 494.121 92.339 493.688 78.9114V34.4273C493.688 33.8776 493.255 33.4457 492.704 33.4457H473.81C473.259 33.4457 472.826 33.8776 472.826 34.4273V34.5451C472.826 34.5451 472.826 79.2844 472.845 79.3432C473.298 104.608 482.47 114.503 505.123 114.503C518.349 114.503 533.11 111.146 541.869 107.808C542.282 107.671 542.538 107.278 542.538 106.846V34.4273C542.558 33.8776 542.125 33.4457 541.573 33.4457Z" fill="#EE2F53"/>
  <path d="M332.041 33.4457H313.146C312.595 33.4457 312.162 33.8776 312.162 34.4273V93.8703C308.069 95.0089 303.975 95.5585 299.369 95.5585C287.915 95.5585 284.588 92.339 284.155 78.9114V34.4273C284.155 33.8776 283.722 33.4457 283.171 33.4457H264.277C263.726 33.4457 263.293 33.8776 263.293 34.4273V34.5451C263.293 34.5451 263.293 79.2844 263.313 79.3432C263.765 104.608 272.937 114.503 295.59 114.503C308.817 114.503 323.578 111.146 332.336 107.808C332.749 107.671 333.005 107.278 333.005 106.846V34.4273C333.025 33.8776 332.592 33.4457 332.041 33.4457Z" fill="#EE2F53"/>
  <path fill-rule="evenodd" clip-rule="evenodd" d="M633.316 37.0413C625.356 33.6676 610.884 31.2579 599.306 31.2579C598.483 31.2579 597.674 31.2687 596.881 31.2904C571.258 31.6486 561.247 43.3266 561.247 72.5876C561.247 102.766 571.579 114.503 598.115 114.503C604.038 114.503 608.968 113.176 613.054 110.949V111.743C613.054 122.346 606.301 127.165 591.587 127.165C587.789 127.165 583.368 126.75 578.937 125.989C577.114 125.63 573.177 124.819 571.405 124.181C570.936 124.045 570.428 124.259 570.213 124.686C568.614 128.188 566.292 133.851 564.583 138.019C564.385 138.501 564.09 139.221 563.912 139.654C563.775 139.926 563.775 140.237 563.892 140.509C564.01 140.782 564.244 140.995 564.537 141.093C571.017 143.153 578.546 144.325 585.703 144.75C587.719 144.911 589.7 144.997 591.587 144.997C592.335 144.997 593.965 145.005 594.708 144.994C594.573 144.993 595.133 145.001 594.708 144.994C601.423 144.994 609.233 144.42 615.662 141.378C626.361 136.935 633.754 127.369 633.754 107.406L633.717 38.0051C633.717 37.2824 633.52 37.184 633.316 37.0413ZM598.115 97.1823C600.615 97.1823 602.699 97.0892 604.434 96.8367C605.026 96.7454 605.58 96.6389 606.097 96.5186C611.54 95.1831 612.554 91.4674 612.824 82.2374L612.858 50.7767C608.998 49.5719 603.889 48.608 599.306 48.608C597.557 48.608 595.983 48.6261 594.565 48.6758C585.53 49.2509 582.259 52.9841 582.259 72.8825C582.259 93.8401 586.025 97.1823 598.115 97.1823Z" fill="#EE2F53"/>
  <path d="M228.454 50.2077C228.454 50.2077 234.104 51.1799 236.945 52.0039C237.414 52.14 237.922 51.9261 238.137 51.4985C239.737 47.9972 242.058 42.3344 243.768 38.166C244.004 37.5893 243.767 38.166 244.438 36.5307C244.575 36.2585 244.575 35.9475 244.458 35.6753C244.341 35.4032 244.106 35.1894 243.813 35.0922C236.231 32.6818 225.188 31.2822 219.035 31.2822C216.894 31.2822 211.701 31.3405 209.417 31.5178C206.093 31.7394 203.051 32.1632 200.455 32.9656C190.605 35.591 182.206 42.0995 182.206 57.7385C182.206 74.8149 193.022 79.3846 209.125 80.5872C223.546 81.7898 224.31 84.6759 224.31 88.7646C224.31 95.2584 221.382 97.1825 210.567 97.1825C210.293 97.1825 210.016 97.1802 209.734 97.1755C202.612 96.944 196.476 95.6796 196.476 95.6796C196.476 95.6796 190.332 94.5312 187.985 93.6867C187.516 93.5506 187.008 93.7644 186.793 94.1921C185.194 97.6936 182.872 103.357 181.163 107.525L181.155 107.544C180.921 108.114 180.699 108.656 180.492 109.16C180.355 109.432 180.355 109.743 180.473 110.015C180.59 110.287 180.824 110.501 181.117 110.598C188.699 113.009 197.717 114.204 205.896 114.408C206.409 114.408 210.69 114.496 211.288 114.499C210.059 114.499 212.797 114.508 211.288 114.499C225.709 114.499 245.177 111.854 245.177 87.8026C245.177 72.6503 237.486 65.9159 217.537 63.7513C205.039 62.5488 203.029 60.3984 203.029 56.536C203.029 49.9278 206.086 48.2011 214.841 48.6004C220.93 48.9999 228.454 50.2077 228.454 50.2077Z" fill="#0066B3"/>
  <path d="M128.046 31.2822C101.51 31.2822 91.1777 42.862 91.1777 72.5879C91.1777 102.766 101.51 114.503 128.046 114.503C154.794 114.503 165.223 102.766 165.223 72.5879C165.223 42.862 154.794 31.2822 128.046 31.2822ZM128.046 97.1826C115.956 97.1826 112.19 93.8404 112.19 72.8828C112.19 50.5687 116.304 48.583 128.046 48.583C140.02 48.583 144.211 50.5687 144.211 72.8828C144.211 93.8404 140.367 97.1826 128.046 97.1826Z" fill="#0066B3"/>
  <path fill-rule="evenodd" clip-rule="evenodd" d="M72.0691 37.0418C64.1092 33.6682 49.637 31.2585 38.0591 31.2585C37.2359 31.2585 36.4278 31.2693 35.6347 31.291C10.0116 31.6492 0 43.3272 0 72.5882C0 102.766 10.3324 114.503 36.8681 114.503C42.7917 114.503 47.7217 113.177 51.8078 110.949V111.744C51.8078 122.346 45.0541 127.166 30.3405 127.166C26.5423 127.166 22.121 126.751 17.6899 125.989C15.8676 125.63 11.9303 124.819 10.1584 124.182C9.68948 124.045 9.18138 124.259 8.96643 124.687C7.367 128.188 5.0452 133.851 3.33606 138.02C3.13846 138.502 2.84302 139.222 2.66527 139.655C2.52849 139.927 2.52844 140.238 2.64571 140.51C2.76297 140.782 2.99745 140.996 3.29058 141.093C9.77063 143.153 17.2991 144.326 24.4566 144.751C26.4719 144.912 28.4533 144.998 30.3405 144.998C31.0884 144.998 32.718 145.006 33.4611 144.994C33.326 144.994 33.8865 145.002 33.4611 144.994C40.1766 144.994 47.9866 144.421 54.4155 141.379C65.1141 136.936 72.5072 127.37 72.5072 107.406L72.4699 38.0057C72.4699 37.283 72.273 37.1846 72.0691 37.0418ZM36.8681 97.1829C39.3686 97.1829 41.4519 97.0898 43.1875 96.8373C43.7796 96.7459 44.3331 96.6395 44.8503 96.5192C50.2933 95.1837 51.3077 91.468 51.5773 82.238L51.6109 50.7773C47.7516 49.5725 42.642 48.6086 38.0591 48.6086C36.3106 48.6086 34.736 48.6267 33.3182 48.6764C24.2835 49.2515 21.0123 52.9847 21.0123 72.8831C21.0123 93.8407 24.7783 97.1829 36.8681 97.1829Z" fill="#0066B3"/>
</svg>